<svg version="1.1" xmlns="http://www.w3.org/2000/svg" x="0px" y="0px"
  width="600" height="200" viewBox="200 250 600 500" xml:space="preserve">
  <g transform="translate(0, 120)">
     <path fill="#1E2A38" opacity="1.000000" stroke="none" 
     d="
   M620.922119,288.652557 
     C637.993958,289.311768 653.908752,293.452423 669.677490,298.165344 
     C701.770691,307.757263 727.645813,326.933716 749.845642,351.368835 
     C755.166016,357.224976 760.890076,362.130127 768.239136,364.613953 
     C792.070251,372.668304 803.390930,390.041779 807.660217,414.003998 
     C810.510437,430.001709 812.344666,445.978455 811.157288,462.069763 
     C809.763977,480.951752 803.818970,490.441956 783.102417,497.623657 
     C781.418518,498.207397 779.519531,498.201965 777.712341,498.392700 
     C774.043701,498.779816 772.804016,496.983124 772.615906,493.426483 
     C772.168701,484.968933 771.436707,476.523834 770.689758,468.085236 
     C769.030701,449.341614 757.012390,435.801514 738.770264,432.000824 
     C730.476624,430.272858 721.713806,434.297272 716.673035,442.235687 
     C711.581177,450.254700 709.087585,459.224792 707.630249,468.470337 
     C706.019775,478.687958 705.498535,488.964661 707.317261,499.247986 
     C708.697876,507.053650 712.909607,513.035156 719.173401,517.645264 
     C720.723877,518.786438 722.612000,520.392273 724.604492,519.043030 
     C726.870056,517.508850 725.121765,515.420288 724.622742,513.612854 
     C719.606995,495.446014 719.628113,477.522278 727.374268,460.041687 
     C728.435730,457.646362 730.011841,455.378052 731.748291,453.401031 
     C738.233398,446.017517 745.507263,445.695526 752.441528,452.641602 
     C763.836121,464.055542 767.594421,478.165253 766.005920,493.840698 
     C765.152893,502.258728 763.479126,510.515076 760.712463,518.612671 
     C755.142700,534.914429 742.929688,542.496765 726.951782,545.276489 
     C705.939941,548.932007 689.054993,541.182495 675.399536,525.605164 
     C671.845886,521.551331 668.461792,518.673340 662.639221,520.024902 
     C660.101990,520.613770 657.328674,520.188293 654.662598,520.219360 
     C621.842285,520.602112 589.022156,520.997375 556.201599,521.357117 
     C548.065308,521.446289 546.859741,520.710876 547.834412,512.476868 
     C549.246216,500.550354 548.150146,488.950134 545.637695,477.353302 
     C544.361511,471.462830 541.997864,465.955688 539.796692,460.382904 
     C533.799316,445.199249 521.856689,437.901642 506.374756,436.498016 
     C489.887482,435.003265 476.911011,441.683838 467.950256,455.815308 
     C461.599701,465.830444 460.045532,477.269714 458.409698,488.599548 
     C455.079956,511.661499 462.132416,531.242615 479.005341,547.302185 
     C479.848541,548.104797 480.626434,548.981262 481.387177,549.864319 
     C484.946014,553.995056 484.236908,556.291260 479.022156,557.355835 
     C463.849091,560.453552 451.334534,554.523804 439.746063,545.636169 
     C435.495636,542.376343 431.835205,538.476562 428.593384,534.223938 
     C426.506256,531.486084 424.002075,530.301147 420.478851,530.315002 
     C395.148956,530.414490 369.818176,530.414429 344.488495,530.284119 
     C340.507263,530.263672 338.193787,531.742371 336.090637,535.135498 
     C314.367767,570.181580 271.718628,561.630005 254.389542,534.547852 
     C251.476776,529.995667 248.202728,527.296814 243.048248,525.822510 
     C224.671692,520.566345 217.300858,506.431549 214.845215,489.001373 
     C212.645035,473.384735 213.464371,457.707703 217.255859,442.445923 
     C223.214539,418.460419 238.285995,401.481689 260.352142,391.014099 
     C280.453979,381.478302 302.035278,376.332123 323.697449,371.679535 
     C330.506256,370.217133 337.358978,368.959686 344.172729,367.519348 
     C348.060455,366.697540 351.076324,364.337708 353.869385,361.640472 
     C377.300140,339.013367 403.524628,320.363861 432.934540,306.286285 
     C451.838165,297.237762 471.539124,291.296295 492.590607,289.490051 
     C522.875549,286.891571 553.155090,288.311737 583.442444,288.458435 
     C595.772888,288.518158 608.103394,288.586853 620.922119,288.652557 
   M531.004578,358.530212 
     C541.963684,349.158234 549.055664,336.827789 556.680298,324.911926 
     C560.123718,319.530518 559.229187,317.616180 552.837097,316.524261 
     C551.536316,316.302032 550.179321,316.369293 548.848206,316.370300 
     C533.017395,316.382324 517.180176,316.141052 501.357819,316.518250 
     C490.074432,316.787201 478.746063,317.206848 467.668640,319.895233 
     C438.197144,327.047516 414.173981,343.954712 391.143707,362.623413 
     C389.514832,363.943817 387.845062,365.495453 388.087158,367.945099 
     C389.616669,369.849365 391.694794,369.642059 393.666687,369.642761 
     C427.659210,369.655121 461.656403,369.969727 495.641846,369.477844 
     C507.967651,369.299469 520.170898,366.876068 531.004578,358.530212 
   M609.078552,315.459015 
     C603.120728,317.108063 598.426147,320.465302 594.247559,325.084717 
     C583.385559,337.092651 573.382812,349.766052 563.820129,362.805786 
     C562.874146,364.095795 561.143005,365.335724 561.920471,367.137817 
     C562.810120,369.199860 565.011536,368.736267 566.789001,368.764709 
     C586.278503,369.076477 605.767761,369.442261 625.258667,369.615295 
     C639.741028,369.743896 640.576904,369.081207 639.560669,354.846863 
     C638.769104,343.759827 636.920593,332.769928 633.662537,322.065521 
     C632.351379,317.757538 629.805786,315.312653 625.262695,314.754242 
     C620.088318,314.118195 614.980957,314.157532 609.078552,315.459015 
   M426.666077,422.334290 
     C414.399414,425.297241 402.053162,427.971161 389.893097,431.321075 
     C381.269135,433.696869 372.340149,435.349670 364.331055,439.591400 
     C359.460297,442.171051 357.307404,447.184570 358.631897,451.693604 
     C359.858978,455.871094 363.624542,457.787537 369.519958,457.568054 
     C387.480316,456.899353 405.440491,456.160248 423.407684,455.763245 
     C438.087585,455.438873 439.717346,457.897064 444.376556,438.400665 
     C444.453674,438.078064 444.495819,437.747253 444.566376,437.422943 
     C448.154663,420.929779 439.909149,418.260040 426.666077,422.334290 
   M655.457642,329.296082 
     C657.989746,340.005402 658.678833,350.935638 659.258972,361.868927 
     C659.412842,364.768921 659.752869,367.297729 663.289490,367.641266 
     C680.059021,369.270264 696.877319,368.733978 713.665894,368.343018 
     C719.755188,368.201263 722.235168,362.213593 718.925171,357.040100 
     C717.592773,354.957520 715.972290,352.965149 714.140259,351.311310 
     C699.255127,337.874390 682.561218,327.491821 663.196289,321.788818 
     C660.283142,320.930878 657.278442,319.672607 653.835571,321.104584 
     C654.358521,323.642242 654.856384,326.058350 655.457642,329.296082 
   M276.981354,442.553589 
     C266.247162,438.088226 255.485123,433.688202 244.792786,429.124817 
     C240.638123,427.351593 238.414017,429.518646 236.808990,432.726654 
     C233.902313,438.536285 231.588608,444.547302 230.865112,451.115692 
     C230.318634,456.076813 231.291641,457.612305 236.201675,457.639069 
     C248.842392,457.707977 261.483704,457.660950 274.124786,457.661743 
     C278.546600,457.662018 282.163452,455.996765 283.348480,451.575134 
     C284.587585,446.951660 281.312836,444.634552 276.981354,442.553589 
   z"/>
<path fill="#1E2A38" opacity="1.000000" stroke="none" 
	d="
M478.174469,487.499207 
	C479.283691,480.809540 480.821960,474.720978 483.887878,469.080566 
	C490.894684,456.190094 507.163239,453.723511 517.254883,458.985260 
	C522.789917,461.871246 526.639465,466.666351 529.069214,472.174652 
	C536.958496,490.059753 536.928284,508.352417 529.949219,526.432373 
	C526.679382,534.903015 520.309570,540.564941 510.991730,542.577698 
	C501.465424,544.635376 493.650696,541.663208 487.949982,534.299866 
	C478.892426,522.600769 475.803925,509.019867 477.353668,494.355469 
	C477.580627,492.208008 477.812561,490.061096 478.174469,487.499207 
z"/>
</g>
</svg> 