<svg version="1.1" id="Layer_1" xmlns="http://www.w3.org/2000/svg" xmlns:xlink="http://www.w3.org/1999/xlink" x="0px" y="0px"
	 width="100%" viewBox="0 0 1024 1024" enable-background="new 0 0 1024 1024" xml:space="preserve">
<path fill="#1E2A38" opacity="1.000000" stroke="none" 
	d="
M620.922119,288.652557 
	C637.993958,289.311768 653.908752,293.452423 669.677490,298.165344 
	C701.770691,307.757263 727.645813,326.933716 749.845642,351.368835 
	C755.166016,357.224976 760.890076,362.130127 768.239136,364.613953 
	C792.070251,372.668304 803.390930,390.041779 807.660217,414.003998 
	C810.510437,430.001709 812.344666,445.978455 811.157288,462.069763 
	C809.763977,480.951752 803.818970,490.441956 783.102417,497.623657 
	C781.418518,498.207397 779.519531,498.201965 777.712341,498.392700 
	C774.043701,498.779816 772.804016,496.983124 772.615906,493.426483 
	C772.168701,484.968933 771.436707,476.523834 770.689758,468.085236 
	C769.030701,449.341614 757.012390,435.801514 738.770264,432.000824 
	C730.476624,430.272858 721.713806,434.297272 716.673035,442.235687 
	C711.581177,450.254700 709.087585,459.224792 707.630249,468.470337 
	C706.019775,478.687958 705.498535,488.964661 707.317261,499.247986 
	C708.697876,507.053650 712.909607,513.035156 719.173401,517.645264 
	C720.723877,518.786438 722.612000,520.392273 724.604492,519.043030 
	C726.870056,517.508850 725.121765,515.420288 724.622742,513.612854 
	C719.606995,495.446014 719.628113,477.522278 727.374268,460.041687 
	C728.435730,457.646362 730.011841,455.378052 731.748291,453.401031 
	C738.233398,446.017517 745.507263,445.695526 752.441528,452.641602 
	C763.836121,464.055542 767.594421,478.165253 766.005920,493.840698 
	C765.152893,502.258728 763.479126,510.515076 760.712463,518.612671 
	C755.142700,534.914429 742.929688,542.496765 726.951782,545.276489 
	C705.939941,548.932007 689.054993,541.182495 675.399536,525.605164 
	C671.845886,521.551331 668.461792,518.673340 662.639221,520.024902 
	C660.101990,520.613770 657.328674,520.188293 654.662598,520.219360 
	C621.842285,520.602112 589.022156,520.997375 556.201599,521.357117 
	C548.065308,521.446289 546.859741,520.710876 547.834412,512.476868 
	C549.246216,500.550354 548.150146,488.950134 545.637695,477.353302 
	C544.361511,471.462830 541.997864,465.955688 539.796692,460.382904 
	C533.799316,445.199249 521.856689,437.901642 506.374756,436.498016 
	C489.887482,435.003265 476.911011,441.683838 467.950256,455.815308 
	C461.599701,465.830444 460.045532,477.269714 458.409698,488.599548 
	C455.079956,511.661499 462.132416,531.242615 479.005341,547.302185 
	C479.848541,548.104797 480.626434,548.981262 481.387177,549.864319 
	C484.946014,553.995056 484.236908,556.291260 479.022156,557.355835 
	C463.849091,560.453552 451.334534,554.523804 439.746063,545.636169 
	C435.495636,542.376343 431.835205,538.476562 428.593384,534.223938 
	C426.506256,531.486084 424.002075,530.301147 420.478851,530.315002 
	C395.148956,530.414490 369.818176,530.414429 344.488495,530.284119 
	C340.507263,530.263672 338.193787,531.742371 336.090637,535.135498 
	C314.367767,570.181580 271.718628,561.630005 254.389542,534.547852 
	C251.476776,529.995667 248.202728,527.296814 243.048248,525.822510 
	C224.671692,520.566345 217.300858,506.431549 214.845215,489.001373 
	C212.645035,473.384735 213.464371,457.707703 217.255859,442.445923 
	C223.214539,418.460419 238.285995,401.481689 260.352142,391.014099 
	C280.453979,381.478302 302.035278,376.332123 323.697449,371.679535 
	C330.506256,370.217133 337.358978,368.959686 344.172729,367.519348 
	C348.060455,366.697540 351.076324,364.337708 353.869385,361.640472 
	C377.300140,339.013367 403.524628,320.363861 432.934540,306.286285 
	C451.838165,297.237762 471.539124,291.296295 492.590607,289.490051 
	C522.875549,286.891571 553.155090,288.311737 583.442444,288.458435 
	C595.772888,288.518158 608.103394,288.586853 620.922119,288.652557 
M531.004578,358.530212 
	C541.963684,349.158234 549.055664,336.827789 556.680298,324.911926 
	C560.123718,319.530518 559.229187,317.616180 552.837097,316.524261 
	C551.536316,316.302032 550.179321,316.369293 548.848206,316.370300 
	C533.017395,316.382324 517.180176,316.141052 501.357819,316.518250 
	C490.074432,316.787201 478.746063,317.206848 467.668640,319.895233 
	C438.197144,327.047516 414.173981,343.954712 391.143707,362.623413 
	C389.514832,363.943817 387.845062,365.495453 388.087158,367.945099 
	C389.616669,369.849365 391.694794,369.642059 393.666687,369.642761 
	C427.659210,369.655121 461.656403,369.969727 495.641846,369.477844 
	C507.967651,369.299469 520.170898,366.876068 531.004578,358.530212 
M609.078552,315.459015 
	C603.120728,317.108063 598.426147,320.465302 594.247559,325.084717 
	C583.385559,337.092651 573.382812,349.766052 563.820129,362.805786 
	C562.874146,364.095795 561.143005,365.335724 561.920471,367.137817 
	C562.810120,369.199860 565.011536,368.736267 566.789001,368.764709 
	C586.278503,369.076477 605.767761,369.442261 625.258667,369.615295 
	C639.741028,369.743896 640.576904,369.081207 639.560669,354.846863 
	C638.769104,343.759827 636.920593,332.769928 633.662537,322.065521 
	C632.351379,317.757538 629.805786,315.312653 625.262695,314.754242 
	C620.088318,314.118195 614.980957,314.157532 609.078552,315.459015 
M426.666077,422.334290 
	C414.399414,425.297241 402.053162,427.971161 389.893097,431.321075 
	C381.269135,433.696869 372.340149,435.349670 364.331055,439.591400 
	C359.460297,442.171051 357.307404,447.184570 358.631897,451.693604 
	C359.858978,455.871094 363.624542,457.787537 369.519958,457.568054 
	C387.480316,456.899353 405.440491,456.160248 423.407684,455.763245 
	C438.087585,455.438873 439.717346,457.897064 444.376556,438.400665 
	C444.453674,438.078064 444.495819,437.747253 444.566376,437.422943 
	C448.154663,420.929779 439.909149,418.260040 426.666077,422.334290 
M655.457642,329.296082 
	C657.989746,340.005402 658.678833,350.935638 659.258972,361.868927 
	C659.412842,364.768921 659.752869,367.297729 663.289490,367.641266 
	C680.059021,369.270264 696.877319,368.733978 713.665894,368.343018 
	C719.755188,368.201263 722.235168,362.213593 718.925171,357.040100 
	C717.592773,354.957520 715.972290,352.965149 714.140259,351.311310 
	C699.255127,337.874390 682.561218,327.491821 663.196289,321.788818 
	C660.283142,320.930878 657.278442,319.672607 653.835571,321.104584 
	C654.358521,323.642242 654.856384,326.058350 655.457642,329.296082 
M276.981354,442.553589 
	C266.247162,438.088226 255.485123,433.688202 244.792786,429.124817 
	C240.638123,427.351593 238.414017,429.518646 236.808990,432.726654 
	C233.902313,438.536285 231.588608,444.547302 230.865112,451.115692 
	C230.318634,456.076813 231.291641,457.612305 236.201675,457.639069 
	C248.842392,457.707977 261.483704,457.660950 274.124786,457.661743 
	C278.546600,457.662018 282.163452,455.996765 283.348480,451.575134 
	C284.587585,446.951660 281.312836,444.634552 276.981354,442.553589 
z"/>
<path fill="#1E2A38" opacity="1.000000" stroke="none" 
	d="
M212.776672,689.393921 
	C215.623032,697.799927 218.495850,705.789429 220.961288,713.902832 
	C223.060760,720.811829 221.177292,723.097961 213.959641,723.245300 
	C198.735657,723.556030 197.695831,722.819214 193.057373,708.433350 
	C189.509735,697.430664 189.509720,697.428406 178.067108,697.417358 
	C170.404404,697.409973 162.731995,697.639893 155.082794,697.316772 
	C150.790131,697.135437 148.314423,698.262207 147.100189,702.677124 
	C145.826248,707.309204 143.760818,711.721680 142.077972,716.243774 
	C140.253403,721.146729 137.132538,723.922485 131.523117,723.418823 
	C128.218079,723.122131 124.864662,723.378662 121.533157,723.359192 
	C114.230247,723.316528 112.494415,721.102539 114.968338,714.070923 
	C118.004288,705.441772 121.445107,696.954651 124.735123,688.415405 
	C134.665741,662.640625 144.661148,636.890564 154.491089,611.077454 
	C156.037323,607.017029 158.646072,604.859314 162.796188,604.178894 
	C168.461594,603.250000 174.064423,603.423035 179.608887,604.930664 
	C183.819214,606.075562 184.829666,609.827759 186.030685,613.233459 
	C192.502289,631.584473 198.854630,649.977539 205.274521,668.346863 
	C207.688629,675.254395 210.173706,682.137085 212.776672,689.393921 
M160.701157,662.058044 
	C159.331680,666.736389 156.907990,671.099548 156.087006,676.160278 
	C164.927383,676.160278 173.339706,676.160278 182.709900,676.160278 
	C178.449875,663.374878 174.407684,651.243225 170.365479,639.111511 
	C169.915359,639.103577 169.465225,639.095581 169.015091,639.087646 
	C166.344849,646.502991 163.674591,653.918274 160.701157,662.058044 
z"/>
<path fill="#1E2A38" opacity="1.000000" stroke="none" 
	d="
M270.372528,703.418335 
	C262.226318,685.416199 262.516876,668.154541 273.619171,651.898254 
	C283.628326,637.242737 306.233490,631.270142 321.879791,638.506042 
	C325.262665,640.070435 327.903076,642.587769 330.637878,644.807434 
	C331.177246,644.550049 331.640259,644.481567 331.720459,644.268799 
	C334.615845,636.586975 334.610992,636.576355 342.762421,636.621704 
	C357.500122,636.703735 356.347015,634.988647 356.346741,650.418762 
	C356.346222,682.742554 356.351593,715.066345 356.336487,747.390137 
	C356.333374,754.107422 355.324341,755.086975 348.508301,755.277649 
	C331.985840,755.739868 331.989563,755.739868 332.010040,739.029541 
	C332.019592,731.239319 332.011658,723.449036 332.011658,714.205261 
	C320.781250,725.375244 308.172119,726.362244 295.068024,722.875549 
	C284.396240,720.036011 275.912140,713.728760 270.372528,703.418335 
M326.244537,696.716614 
	C334.961243,686.077026 334.669922,669.927673 325.625305,662.391174 
	C316.868774,655.094666 304.188721,655.583374 296.718597,663.505188 
	C288.390320,672.337097 288.507202,688.342285 296.964630,697.178894 
	C304.445007,704.994690 316.282227,705.008484 326.244537,696.716614 
z"/>
<path fill="#1E2A38" opacity="1.000000" stroke="none" 
	d="
M718.651306,671.012817 
	C721.351807,656.001770 728.831970,644.802063 742.692566,639.029602 
	C755.964722,633.502258 769.254517,633.192444 781.268860,642.476257 
	C783.615784,640.726746 782.869690,638.559143 782.887451,636.700256 
	C782.970398,628.040955 782.845947,619.379578 782.932068,610.720337 
	C782.990967,604.800476 784.104370,603.799194 790.009888,603.777588 
	C793.673767,603.764221 797.343628,603.925964 801.000183,603.765808 
	C805.730469,603.558533 807.451843,605.642578 807.410706,610.348267 
	C807.249146,628.833252 807.348389,647.320557 807.348694,665.807007 
	C807.348938,682.461426 807.357666,699.115906 807.339661,715.770325 
	C807.332520,722.352661 806.518616,723.134521 799.809814,723.250610 
	C798.810852,723.267944 797.811218,723.246094 796.812195,723.262817 
	C784.961060,723.461182 785.851929,722.309570 785.291748,712.746826 
	C784.458557,711.996704 784.141724,712.918335 783.803589,713.311707 
	C765.992310,734.031555 728.417542,725.531494 719.780273,695.110901 
	C717.579285,687.359192 716.815735,679.442932 718.651306,671.012817 
M781.580688,691.945984 
	C784.278931,687.718567 783.641907,682.976074 783.638977,678.347107 
	C783.631714,666.907532 777.611145,658.892395 767.853699,657.246948 
	C757.175293,655.446167 747.799438,661.083740 744.008789,671.584534 
	C739.858826,683.080261 744.574646,695.981140 754.823914,701.171204 
	C763.912964,705.773682 775.011230,702.168091 781.580688,691.945984 
z"/>
<path fill="#1E2A38" opacity="1.000000" stroke="none" 
	d="
M615.271606,668.246948 
	C615.291443,684.051025 615.332947,699.381592 615.289124,714.711914 
	C615.267334,722.346924 614.236389,723.305603 606.619080,723.352539 
	C604.119568,723.367920 601.605652,723.191406 599.123535,723.401245 
	C594.497192,723.792358 590.598999,723.438354 591.369568,716.320801 
	C580.756226,725.388794 569.157593,725.618347 557.225342,723.344116 
	C545.322998,721.075500 536.733276,712.127197 535.700500,701.388611 
	C534.466614,688.558594 540.412781,678.754089 552.563843,673.792725 
	C559.260681,671.058472 566.328857,669.986572 573.507141,669.705688 
	C577.833313,669.536377 582.172241,669.593933 586.503052,669.676636 
	C589.857117,669.740662 591.030212,668.626892 589.942200,665.139343 
	C588.204468,659.569458 584.386536,656.309387 578.912720,655.555725 
	C572.690002,654.698975 566.000183,654.750427 562.413513,661.000916 
	C559.967224,665.263977 557.003662,666.329651 552.671326,665.909058 
	C549.690430,665.619690 546.688721,665.506653 543.693237,665.415100 
	C539.641296,665.291199 538.613892,663.096313 539.210571,659.432556 
	C540.599854,650.900452 545.192383,644.443970 552.797729,640.796875 
	C569.775635,632.655151 586.651062,633.714050 603.004272,642.877625 
	C609.592407,646.569275 612.628967,652.809387 614.173401,659.873596 
	C614.739380,662.462158 614.908081,665.137634 615.271606,668.246948 
M590.635071,688.181641 
	C590.608459,686.924255 590.333008,685.827087 588.803955,685.706848 
	C581.130188,685.102905 573.490173,685.307922 566.315430,688.364990 
	C562.753235,689.882812 560.558289,692.871338 560.972412,697.073730 
	C561.398804,701.400635 564.013550,704.059814 568.035950,705.138611 
	C578.760620,708.015076 592.009399,700.174683 590.635071,688.181641 
z"/>
<path fill="#1E2A38" opacity="1.000000" stroke="none" 
	d="
M825.479126,653.577698 
	C842.789734,629.008118 886.062134,629.583008 901.362488,653.867126 
	C911.137817,669.382141 912.560608,685.879761 904.339050,702.328186 
	C896.549133,717.913208 882.682861,723.980225 865.761963,724.421387 
	C849.768127,724.838440 836.211853,719.877869 826.348206,706.931885 
	C815.045410,692.097229 814.775391,670.650085 825.479126,653.577698 
M843.455444,672.066956 
	C843.234924,673.038818 843.008728,674.009460 842.794800,674.982727 
	C840.374878,685.992249 846.106079,698.774597 855.308350,702.258423 
	C862.826355,705.104614 870.177734,704.317383 876.519226,699.262573 
	C883.391052,693.785095 885.084656,685.939392 884.369141,677.702820 
	C883.604797,668.903442 880.872314,660.864380 871.339294,657.726562 
	C859.293457,653.761597 848.202393,659.318115 843.455444,672.066956 
z"/>
<path fill="#1E2A38" opacity="1.000000" stroke="none" 
	d="
M658.229980,640.057129 
	C675.607605,630.537537 695.096375,634.764709 703.728760,649.757629 
	C706.585449,654.719177 708.280151,660.135132 708.310364,665.895264 
	C708.398621,682.722046 708.385376,699.549500 708.352600,716.376587 
	C708.340637,722.524658 707.559998,723.247192 701.399597,723.321777 
	C698.068054,723.362122 694.734497,723.373047 691.403625,723.308838 
	C686.033264,723.205322 684.704834,721.899475 684.679443,716.370911 
	C684.618896,703.209229 684.654724,690.047180 684.649170,676.885254 
	C684.648193,674.556458 684.533813,672.274048 683.968567,669.961914 
	C681.883545,661.432007 678.232422,657.654114 671.420837,657.335876 
	C663.161011,656.949890 656.131531,661.562134 653.768433,669.144714 
	C652.883423,671.984619 652.326965,674.910156 652.351074,677.968811 
	C652.450806,690.630127 652.422119,703.292603 652.401123,715.954590 
	C652.390259,722.467346 651.627747,723.241943 645.317261,723.320740 
	C641.985779,723.362305 638.653198,723.307007 635.321106,723.314026 
	C631.061523,723.323059 628.762573,721.294434 628.758911,716.953979 
	C628.738464,692.463013 628.683289,667.971802 628.765076,643.481140 
	C628.781860,638.460327 630.786987,636.782166 635.907410,636.652527 
	C637.072998,636.622986 638.239746,636.640869 639.406006,636.640320 
	C649.160156,636.635559 649.160156,636.635742 650.995056,645.923828 
	C653.408875,643.948425 655.664062,642.102844 658.229980,640.057129 
z"/>
<path fill="#1E2A38" opacity="1.000000" stroke="none" 
	d="
M412.847412,723.262451 
	C389.766998,729.504150 370.943604,715.409668 370.694855,691.905884 
	C370.527496,676.091919 370.629608,660.274841 370.673584,644.459290 
	C370.692078,637.799316 371.879089,636.697021 378.590851,636.648560 
	C381.254395,636.629333 383.918243,636.626404 386.581848,636.637207 
	C393.813263,636.666382 394.848419,637.544128 394.936707,645.006470 
	C395.072601,656.491821 394.947723,667.980164 394.976196,679.467041 
	C394.983612,682.461060 395.046692,685.461914 395.260895,688.447021 
	C395.929108,697.760254 401.745605,703.772705 409.842896,703.632812 
	C418.224670,703.488037 425.491547,696.240234 425.617554,687.373657 
	C425.811523,673.724976 425.676422,660.071655 425.695251,646.420349 
	C425.706970,637.914612 426.969421,636.655273 435.533600,636.661560 
	C450.426971,636.672485 449.354431,635.247375 449.343170,650.269470 
	C449.326843,672.078430 449.341003,693.887451 449.315216,715.696411 
	C449.307404,722.283264 448.516968,723.024841 441.774139,723.154236 
	C440.941956,723.170227 440.109406,723.171326 439.277039,723.174622 
	C428.455292,723.217224 428.455292,723.216980 427.228485,712.175110 
	C423.344757,717.203491 419.154541,721.345581 412.847412,723.262451 
z"/>
<path fill="#1E2A38" opacity="1.000000" stroke="none" 
	d="
M478.174469,487.499207 
	C479.283691,480.809540 480.821960,474.720978 483.887878,469.080566 
	C490.894684,456.190094 507.163239,453.723511 517.254883,458.985260 
	C522.789917,461.871246 526.639465,466.666351 529.069214,472.174652 
	C536.958496,490.059753 536.928284,508.352417 529.949219,526.432373 
	C526.679382,534.903015 520.309570,540.564941 510.991730,542.577698 
	C501.465424,544.635376 493.650696,541.663208 487.949982,534.299866 
	C478.892426,522.600769 475.803925,509.019867 477.353668,494.355469 
	C477.580627,492.208008 477.812561,490.061096 478.174469,487.499207 
z"/>
<path fill="#1E2A38" opacity="1.000000" stroke="none" 
	d="
M526.360718,609.247559 
	C526.360168,644.884827 526.361450,680.048950 526.346802,715.213074 
	C526.343811,722.470581 525.538025,723.266113 518.350098,723.333496 
	C516.183777,723.353821 514.017090,723.342773 511.850616,723.334167 
	C503.208710,723.299927 502.673279,722.781799 502.669159,714.355713 
	C502.662109,700.023376 502.664734,685.691101 502.664398,671.358765 
	C502.663940,651.193542 502.648071,631.028320 502.674683,610.863098 
	C502.682648,604.830750 503.676392,603.850464 509.591492,603.800964 
	C513.424133,603.768921 517.257568,603.838745 521.090332,603.814575 
	C524.453430,603.793335 526.593872,605.004761 526.360718,609.247559 
z"/>
<path fill="#1E2A38" opacity="1.000000" stroke="none" 
	d="
M231.647614,647.999878 
	C231.647415,635.007385 231.795563,622.512146 231.569916,610.023743 
	C231.487152,605.443115 233.246780,603.597656 237.684113,603.761658 
	C241.344131,603.897034 245.013397,603.763367 248.675964,603.853882 
	C254.406967,603.995483 255.329147,604.906372 255.334106,610.631592 
	C255.359222,639.614258 255.347809,668.596863 255.348282,697.579529 
	C255.348389,703.909058 255.396500,710.239136 255.327133,716.567932 
	C255.267090,722.047302 254.059738,723.207825 248.457825,723.323181 
	C245.127914,723.391785 241.794159,723.399719 238.464508,723.326843 
	C232.989685,723.207031 231.684082,721.951294 231.672577,716.459167 
	C231.627258,694.805603 231.650558,673.151855 231.648376,651.498169 
	C231.648270,650.498779 231.648026,649.499329 231.647614,647.999878 
z"/>
<path fill="#1E2A38" opacity="1.000000" stroke="none" 
	d="
M488.350891,650.023804 
	C488.347809,672.146606 488.359070,693.774231 488.332489,715.401794 
	C488.324097,722.207214 487.295746,723.176880 480.532379,723.301453 
	C463.114899,723.622375 464.630737,722.817017 464.659393,707.543152 
	C464.698364,686.747437 464.661102,665.951660 464.682648,645.155884 
	C464.690613,637.464172 465.556580,636.649353 473.359955,636.652344 
	C476.188171,636.653442 479.025574,636.799683 481.842529,636.622131 
	C486.515442,636.327515 488.699860,638.282959 488.370392,643.041992 
	C488.221375,645.194336 488.348663,647.365784 488.350891,650.023804 
z"/>
<path fill="#1E2A38" opacity="1.000000" stroke="none" 
	d="
M479.372742,601.505127 
	C487.753723,603.470764 491.959290,609.953735 489.696747,616.871948 
	C487.202972,624.497314 479.283875,628.079468 471.677887,625.022583 
	C464.917633,622.305603 461.691895,614.124573 465.019257,607.665527 
	C467.960632,601.955811 473.184753,600.965332 479.372742,601.505127 
z"/>
</svg>